<?xml version="1.0" encoding="utf-8"?>
<!-- Generator: Adobe Illustrator 23.0.1, SVG Export Plug-In . SVG Version: 6.00 Build 0)  -->
<svg version="1.1" id="Layer_1" xmlns="http://www.w3.org/2000/svg" xmlns:xlink="http://www.w3.org/1999/xlink" x="0px" y="0px"
	 viewBox="0 0 320 100" style="enable-background:new 0 0 320 100;" xml:space="preserve">
<style type="text/css">
	.st0{fill:#65B19F;}
	.st1{fill:#F9E4CD;}
</style>
<g>
	<rect x="23.78" class="st0" width="273.63" height="100"/>
</g>
<g>
	<rect x="15.82" y="10.69" class="st0" width="289.54" height="78.63"/>
</g>
<g>
	<circle class="st0" cx="26.54" cy="49.78" r="25.45"/>
</g>
<g>
	<circle class="st0" cx="293.93" cy="49.78" r="25.45"/>
</g>
<g>
	<g>
		<rect x="22.8" y="17.18" class="st0" width="275.57" height="65.19"/>
	</g>
	<g>
		<path class="st1" d="M297.66,17.82v63.93H23.52V17.82H297.66 M299.09,16.55h-1.43H23.52h-1.43v1.26v63.93v1.26h1.43h274.14h1.43
			v-1.26V17.82V16.55L299.09,16.55z"/>
	</g>
</g>
<g>
	<g>
		<path class="st0" d="M26.54,69.5c-5.27,0-10.22-2.05-13.94-5.77C8.87,60,6.82,55.05,6.82,49.78s2.05-10.22,5.77-13.94
			c3.72-3.72,8.68-5.77,13.94-5.77s10.22,2.05,13.94,5.77c3.72,3.72,5.77,8.68,5.77,13.94S44.2,60,40.48,63.72
			C36.76,67.45,31.8,69.5,26.54,69.5z"/>
	</g>
	<g>
		<path class="st1" d="M26.54,30.7c10.54,0,19.08,8.54,19.08,19.08c0,10.54-8.54,19.08-19.08,19.08S7.45,60.32,7.45,49.78
			C7.45,39.24,16,30.7,26.54,30.7 M26.54,29.43c-2.75,0-5.41,0.54-7.92,1.6c-2.42,1.02-4.6,2.49-6.47,4.36
			c-1.87,1.87-3.34,4.04-4.36,6.47c-1.06,2.51-1.6,5.17-1.6,7.92s0.54,5.41,1.6,7.92c1.02,2.42,2.49,4.6,4.36,6.47
			s4.04,3.34,6.47,4.36c2.51,1.06,5.17,1.6,7.92,1.6s5.41-0.54,7.92-1.6c2.42-1.02,4.6-2.49,6.47-4.36s3.34-4.04,4.36-6.47
			c1.06-2.51,1.6-5.17,1.6-7.92s-0.54-5.41-1.6-7.92c-1.02-2.42-2.49-4.6-4.36-6.47c-1.87-1.87-4.04-3.34-6.47-4.36
			C31.95,29.97,29.28,29.43,26.54,29.43L26.54,29.43z"/>
	</g>
</g>
<g>
	<circle class="st0" cx="293.93" cy="49.78" r="19.08"/>
	<path class="st1" d="M293.93,69.5c-5.27,0-10.22-2.05-13.94-5.77c-3.72-3.72-5.77-8.68-5.77-13.94s2.05-10.22,5.77-13.94
		c3.72-3.72,8.68-5.77,13.94-5.77s10.22,2.05,13.94,5.77c3.72,3.72,5.77,8.68,5.77,13.94s-2.05,10.22-5.77,13.94
		C304.14,67.45,299.19,69.5,293.93,69.5z M293.93,31.33c-4.93,0-9.56,1.92-13.05,5.4c-3.49,3.49-5.4,8.12-5.4,13.05
		s1.92,9.56,5.4,13.05s8.12,5.4,13.05,5.4c4.93,0,9.56-1.92,13.05-5.4c3.49-3.49,5.4-8.12,5.4-13.05s-1.92-9.56-5.4-13.05
		C303.49,33.25,298.86,31.33,293.93,31.33z"/>
</g>
<g>
	<rect x="31.22" y="7.42" class="st0" width="258.73" height="85.17"/>
	<path class="st1" d="M290.67,93.25H30.51V6.75h260.15V93.25z M31.94,91.92h257.3V8.08H31.94V91.92z"/>
</g>
<g>
	<rect x="23.52" y="17.82" class="st0" width="274.14" height="63.93"/>
</g>
<g>
	<rect x="23.52" y="17.82" class="st0" width="274.14" height="63.93"/>
</g>
</svg>
